<svg id="visual" viewBox="0 0 960 540" width="960" height="540" xmlns="http://www.w3.org/2000/svg" xmlns:xlink="http://www.w3.org/1999/xlink" version="1.1"><rect x="0" y="0" width="960" height="540" fill="#FFF1D0"></rect><path d="M0 150L40 182.3C80 214.7 160 279.3 240 270C320 260.7 400 177.3 480 158.8C560 140.3 640 186.7 720 186.7C800 186.7 880 140.3 920 117.2L960 94L960 0L920 0C880 0 800 0 720 0C640 0 560 0 480 0C400 0 320 0 240 0C160 0 80 0 40 0L0 0Z" fill="#FFFFFF" stroke-linecap="round" stroke-linejoin="miter"></path></svg>