<svg id="visual" viewBox="0 0 960 540" width="960" height="540" xmlns="http://www.w3.org/2000/svg" xmlns:xlink="http://www.w3.org/1999/xlink" version="1.1"><rect x="0" y="0" width="960" height="540" fill="#EFE7DA"></rect><path d="M0 187L17.8 209.7C35.7 232.3 71.3 277.7 106.8 275.3C142.3 273 177.7 223 213.2 191.3C248.7 159.7 284.3 146.3 320 157C355.7 167.7 391.3 202.3 426.8 239.5C462.3 276.7 497.7 316.3 533.2 325.2C568.7 334 604.3 312 640 264.7C675.7 217.3 711.3 144.7 746.8 143.8C782.3 143 817.7 214 853.2 241.3C888.7 268.7 924.3 252.3 942.2 244.2L960 236L960 0L942.2 0C924.3 0 888.7 0 853.2 0C817.7 0 782.3 0 746.8 0C711.3 0 675.7 0 640 0C604.3 0 568.7 0 533.2 0C497.7 0 462.3 0 426.8 0C391.3 0 355.7 0 320 0C284.3 0 248.7 0 213.2 0C177.7 0 142.3 0 106.8 0C71.3 0 35.7 0 17.8 0L0 0Z" fill="#C1D8C3" stroke-linecap="round" stroke-linejoin="miter"></path></svg>