<svg id="visual" viewBox="0 0 900 600" width="900" height="600" xmlns="http://www.w3.org/2000/svg" xmlns:xlink="http://www.w3.org/1999/xlink" version="1.1"><rect x="0" y="0" width="900" height="600" fill="#fff"></rect><path d="M0 378L13.7 364.2C27.3 350.3 54.7 322.7 82 319.3C109.3 316 136.7 337 163.8 336.2C191 335.3 218 312.7 245.2 327.7C272.3 342.7 299.7 395.3 327 410.3C354.3 425.3 381.7 402.7 409 373.3C436.3 344 463.7 308 491 324.8C518.3 341.7 545.7 411.3 573 427.5C600.3 443.7 627.7 406.3 654.8 381.5C682 356.7 709 344.3 736.2 359.5C763.3 374.7 790.7 417.3 818 438C845.3 458.7 872.7 457.3 886.3 456.7L900 456L900 0L886.3 0C872.7 0 845.3 0 818 0C790.7 0 763.3 0 736.2 0C709 0 682 0 654.8 0C627.7 0 600.3 0 573 0C545.7 0 518.3 0 491 0C463.7 0 436.3 0 409 0C381.7 0 354.3 0 327 0C299.7 0 272.3 0 245.2 0C218 0 191 0 163.8 0C136.7 0 109.3 0 82 0C54.7 0 27.3 0 13.7 0L0 0Z" fill="#fa7268"></path><path d="M0 247L13.7 242.5C27.3 238 54.7 229 82 229.5C109.3 230 136.7 240 163.8 267.8C191 295.7 218 341.3 245.2 338.5C272.3 335.7 299.7 284.3 327 256.3C354.3 228.3 381.7 223.7 409 248.2C436.3 272.7 463.7 326.3 491 339.3C518.3 352.3 545.7 324.7 573 296.5C600.3 268.3 627.7 239.7 654.8 232.7C682 225.7 709 240.3 736.2 237.3C763.3 234.3 790.7 213.7 818 208.8C845.3 204 872.7 215 886.3 220.5L900 226L900 0L886.3 0C872.7 0 845.3 0 818 0C790.7 0 763.3 0 736.2 0C709 0 682 0 654.8 0C627.7 0 600.3 0 573 0C545.7 0 518.3 0 491 0C463.7 0 436.3 0 409 0C381.7 0 354.3 0 327 0C299.7 0 272.3 0 245.2 0C218 0 191 0 163.8 0C136.7 0 109.3 0 82 0C54.7 0 27.3 0 13.7 0L0 0Z" fill="#ef5f67"></path><path d="M0 268L13.7 248.7C27.3 229.3 54.7 190.7 82 194.5C109.3 198.3 136.7 244.7 163.8 266.5C191 288.3 218 285.7 245.2 271.2C272.3 256.7 299.7 230.3 327 225.3C354.3 220.3 381.7 236.7 409 238.5C436.3 240.3 463.7 227.7 491 211.5C518.3 195.3 545.7 175.7 573 166.2C600.3 156.7 627.7 157.3 654.8 155.8C682 154.3 709 150.7 736.2 174.7C763.3 198.7 790.7 250.3 818 271.2C845.3 292 872.7 282 886.3 277L900 272L900 0L886.3 0C872.7 0 845.3 0 818 0C790.7 0 763.3 0 736.2 0C709 0 682 0 654.8 0C627.7 0 600.3 0 573 0C545.7 0 518.3 0 491 0C463.7 0 436.3 0 409 0C381.7 0 354.3 0 327 0C299.7 0 272.3 0 245.2 0C218 0 191 0 163.8 0C136.7 0 109.3 0 82 0C54.7 0 27.3 0 13.7 0L0 0Z" fill="#e34c67"></path><path d="M0 202L13.7 202.2C27.3 202.3 54.7 202.7 82 193.5C109.3 184.3 136.7 165.7 163.8 157.2C191 148.7 218 150.3 245.2 161.7C272.3 173 299.7 194 327 197.3C354.3 200.7 381.7 186.3 409 166.3C436.3 146.3 463.7 120.7 491 111.2C518.3 101.7 545.7 108.3 573 120.8C600.3 133.3 627.7 151.7 654.8 149.8C682 148 709 126 736.2 120.7C763.3 115.3 790.7 126.7 818 123.2C845.3 119.7 872.7 101.3 886.3 92.2L900 83L900 0L886.3 0C872.7 0 845.3 0 818 0C790.7 0 763.3 0 736.2 0C709 0 682 0 654.8 0C627.7 0 600.3 0 573 0C545.7 0 518.3 0 491 0C463.7 0 436.3 0 409 0C381.7 0 354.3 0 327 0C299.7 0 272.3 0 245.2 0C218 0 191 0 163.8 0C136.7 0 109.3 0 82 0C54.7 0 27.3 0 13.7 0L0 0Z" fill="#d53867"></path><path d="M0 151L13.7 136.2C27.3 121.3 54.7 91.7 82 85.5C109.3 79.3 136.7 96.7 163.8 103C191 109.3 218 104.7 245.2 107.5C272.3 110.3 299.7 120.7 327 127C354.3 133.3 381.7 135.7 409 138.8C436.3 142 463.7 146 491 131.5C518.3 117 545.7 84 573 78.7C600.3 73.3 627.7 95.7 654.8 112.2C682 128.7 709 139.3 736.2 129C763.3 118.7 790.7 87.3 818 70.2C845.3 53 872.7 50 886.3 48.5L900 47L900 0L886.3 0C872.7 0 845.3 0 818 0C790.7 0 763.3 0 736.2 0C709 0 682 0 654.8 0C627.7 0 600.3 0 573 0C545.7 0 518.3 0 491 0C463.7 0 436.3 0 409 0C381.7 0 354.3 0 327 0C299.7 0 272.3 0 245.2 0C218 0 191 0 163.8 0C136.7 0 109.3 0 82 0C54.7 0 27.3 0 13.7 0L0 0Z" fill="#c62368"></path></svg>