<?xml version="1.0" standalone="no"?>
<svg xmlns:xlink="http://www.w3.org/1999/xlink" id="wave" style="transform:rotate(0deg); transition: 0.3s" viewBox="0 0 1440 490" version="1.1" xmlns="http://www.w3.org/2000/svg"><defs><linearGradient id="sw-gradient-0" x1="0" x2="0" y1="1" y2="0"><stop stop-color="rgba(243, 106, 62, 1)" offset="0%"/><stop stop-color="rgba(255, 179, 11, 1)" offset="100%"/></linearGradient></defs><path style="transform:translate(0, 0px); opacity:1" fill="url(#sw-gradient-0)" d="M0,0L48,24.5C96,49,192,98,288,114.3C384,131,480,114,576,155.2C672,196,768,294,864,277.7C960,261,1056,131,1152,98C1248,65,1344,131,1440,171.5C1536,212,1632,229,1728,245C1824,261,1920,278,2016,277.7C2112,278,2208,261,2304,236.8C2400,212,2496,180,2592,179.7C2688,180,2784,212,2880,245C2976,278,3072,310,3168,302.2C3264,294,3360,245,3456,245C3552,245,3648,294,3744,294C3840,294,3936,245,4032,204.2C4128,163,4224,131,4320,147C4416,163,4512,229,4608,212.3C4704,196,4800,98,4896,122.5C4992,147,5088,294,5184,318.5C5280,343,5376,245,5472,196C5568,147,5664,147,5760,171.5C5856,196,5952,245,6048,245C6144,245,6240,196,6336,155.2C6432,114,6528,82,6624,89.8C6720,98,6816,147,6864,171.5L6912,196L6912,490L6864,490C6816,490,6720,490,6624,490C6528,490,6432,490,6336,490C6240,490,6144,490,6048,490C5952,490,5856,490,5760,490C5664,490,5568,490,5472,490C5376,490,5280,490,5184,490C5088,490,4992,490,4896,490C4800,490,4704,490,4608,490C4512,490,4416,490,4320,490C4224,490,4128,490,4032,490C3936,490,3840,490,3744,490C3648,490,3552,490,3456,490C3360,490,3264,490,3168,490C3072,490,2976,490,2880,490C2784,490,2688,490,2592,490C2496,490,2400,490,2304,490C2208,490,2112,490,2016,490C1920,490,1824,490,1728,490C1632,490,1536,490,1440,490C1344,490,1248,490,1152,490C1056,490,960,490,864,490C768,490,672,490,576,490C480,490,384,490,288,490C192,490,96,490,48,490L0,490Z"/></svg>