<svg id="visual" viewBox="0 0 900 600" width="900" height="600" xmlns="http://www.w3.org/2000/svg" xmlns:xlink="http://www.w3.org/1999/xlink" version="1.1"><rect x="0" y="0" width="900" height="600" fill="#fff"></rect><path d="M0 290L15 304C30 318 60 346 90 351.3C120 356.7 150 339.3 180 332.7C210 326 240 330 270 331.2C300 332.3 330 330.7 360 318C390 305.3 420 281.7 450 289.2C480 296.7 510 335.3 540 350.7C570 366 600 358 630 351.8C660 345.7 690 341.3 720 324.7C750 308 780 279 810 281.8C840 284.7 870 319.3 885 336.7L900 354L900 0L885 0C870 0 840 0 810 0C780 0 750 0 720 0C690 0 660 0 630 0C600 0 570 0 540 0C510 0 480 0 450 0C420 0 390 0 360 0C330 0 300 0 270 0C240 0 210 0 180 0C150 0 120 0 90 0C60 0 30 0 15 0L0 0Z" fill="#fa7268"></path><path d="M0 169L15 162.2C30 155.3 60 141.7 90 144.2C120 146.7 150 165.3 180 170.7C210 176 240 168 270 168.3C300 168.7 330 177.3 360 187.5C390 197.7 420 209.3 450 202.8C480 196.3 510 171.7 540 158.7C570 145.7 600 144.3 630 157.2C660 170 690 197 720 210.5C750 224 780 224 810 222.5C840 221 870 218 885 216.5L900 215L900 0L885 0C870 0 840 0 810 0C780 0 750 0 720 0C690 0 660 0 630 0C600 0 570 0 540 0C510 0 480 0 450 0C420 0 390 0 360 0C330 0 300 0 270 0C240 0 210 0 180 0C150 0 120 0 90 0C60 0 30 0 15 0L0 0Z" fill="#c62368"></path></svg>